<?xml version="1.0" encoding="utf-8"?>
<!-- Generator: Adobe Illustrator 16.0.0, SVG Export Plug-In . SVG Version: 6.00 Build 0)  -->
<!DOCTYPE svg PUBLIC "-//W3C//DTD SVG 1.1//EN" "http://www.w3.org/Graphics/SVG/1.1/DTD/svg11.dtd">
<svg version="1.1" id="Layer_1" xmlns="http://www.w3.org/2000/svg" xmlns:xlink="http://www.w3.org/1999/xlink" x="0px" y="0px"
	 width="1024px" height="136.533px" viewBox="0 270.222 1024 136.533" enable-background="new 0 270.222 1024 136.533"
	 xml:space="preserve">
<rect x="-47.5" y="312.5" fill="#A0C3F8" stroke="#000000" stroke-miterlimit="10" width="1160" height="596"/>
<path fill="#EBB4D2" d="M0,338.489l28.444,7.609c28.444,7.324,85.334,22.969,142.223,30.293c56.89,7.609,113.777,7.609,170.667,3.84
	c56.89-4.053,113.777-11.164,170.666-11.378c56.891,0.214,113.778,7.325,170.668,3.77c56.889-3.555,113.777-19.199,170.666-15.146
	c56.89,3.77,113.777,26.525,142.224,37.902L1024,406.755V270.222h-28.442c-28.445,0-85.334,0-142.224,0
	c-56.889,0-113.777,0-170.666,0c-56.89,0-113.777,0-170.668,0c-56.889,0-113.776,0-170.666,0s-113.777,0-170.667,0
	c-56.889,0-113.777,0-142.223,0H0V338.489z"/>
</svg>
